<svg version="1.1" id="Layer_1" xmlns="http://www.w3.org/2000/svg" xmlns:xlink="http://www.w3.org/1999/xlink" x="0px" y="0px" viewBox="0 0 500 500" style="width: 216px;" xml:space="preserve" data-imageid="chef-8" imageName="Chef" class="illustrations_image">
<style type="text/css">
	.st0_chef-8{fill:#f59e0b;}
	.st1_chef-8{fill:url(#SVGID_1_);}
	.st2_chef-8{fill:#EBFF99;}
	.st3_chef-8{fill:#6D3421;}
	.st4_chef-8{fill:#68E1FD;}
	.st5_chef-8{fill:url(#SVGID_00000140694450877829304200000013134934274901445820_);}
	.st6_chef-8{fill:#383838;}
	.st7_chef-8{fill:#FF780B;}
	.st8_chef-8{opacity:0.5;fill:#F7F7F7;enable-background:new    ;}
	.st9_chef-8{fill:#F7F7F7;}
	.st10_chef-8{fill:#FFC197;}
	.st11_chef-8{opacity:0.2;fill:#383838;enable-background:new    ;}
	.st12_chef-8{fill:#FF1710;}
</style>
<path id="field_chef-8" class="st0_chef-8" d="M243,416.3L24.6,287.2c-7-3.9-12.9-10.3-6.1-14.5l219.2-126.4c3.3-2,8.3-3.4,11.6-1.4L478.6,278&#10;&#9;c7,4,8.2,15.3,1.3,19.4l-208,118.8C263,421.3,252,421.4,243,416.3z"/>
<g id="plant_chef-8">
	
		<linearGradient id="SVGID_1_-chef-8" gradientUnits="userSpaceOnUse" x1="404.6742" y1="-965.0872" x2="420.6142" y2="-989.1472" gradientTransform="matrix(1 0 0 1 0 1286.3701)">
		<stop offset="2.000000e-02" style="stop-color:#FF836A;stop-opacity:0"/>
		<stop offset="1" style="stop-color:#FF836A"/>
	</linearGradient>
	<path class="st1_chef-8" d="M420.6,291.9c-12,7.1-24.3,13.9-36.2,21.3l21.4,12.2c6.4-4.4,30-16.6,36.1-21.4L420.6,291.9z"/>
	<path class="st2_chef-8" d="M403.6,226.1c2.3-0.1,4.5,0.3,6.5,1.3c2.1,1.2,3.7,3,4.6,5.2c1,2.1,1.5,5.1,3.5,6.5c0.8,0.4,1.5,1.1,2.1,1.8&#10;&#9;&#9;c1,1.5,1.3,3.4,0.7,5c-0.9,1.9-4.8,3-6.6,2.7"/>
	<path class="st3_chef-8" d="M401.8,226.4c-5.4,0.5-9.8,4.3-11.1,9.6c-0.7,2.6-0.7,5.3-0.1,7.9c0.5,2.1,1.7,5.7,4.3,5.9&#10;&#9;&#9;c3.4,0.2,4.6-3,5.6-5.7s2.2-5.6,5-6.6c2.8-1,5.9-0.3,8,1.8L401.8,226.4z"/>
	<path class="st2_chef-8" d="M417.5,240.4c-2.1-2.7-3.8-5.6-5.8-8.4c-1.1-1.8-2.5-3.4-4-4.9c-4.8-2.3-10.8-0.2-14.4,3.9&#10;&#9;&#9;c0.5,0.1,1.2,0.2,1.5,0.3c2.1,0.8,4,2.2,5.5,3.9c2.1,2.4,3.8,5.2,5.6,7.7c3,4,7.1,7.4,12.3,5C421.6,246.3,419,242.3,417.5,240.4z"/>
	<path class="st3_chef-8" d="M434.5,205.7c0,0,10.8-0.9,10.6,16.2s-16.3,5.9-12.8-4.4"/>
	<path class="st2_chef-8" d="M432.9,222.5c-0.1-5.2,5.7-9,10.6-9.7c-1.1-4.5-5.1-7.6-9.8-7.6c-7.4,0.2-12.9,7.7-14.2,16.6&#10;&#9;&#9;s5.5,14.4,5.5,14.4l3.6,3C435.2,236.7,432.7,227.2,432.9,222.5z"/>
	<path class="st3_chef-8" d="M462.3,234.7c-0.2-3.2-1-6.4-2.5-9.3c-1.4-2.8-4-4.8-7-5.4l-6.1,11.7c0,0,9.1-15.8,5.4-3.6s8.5,25.9,10.1,7.7&#10;&#9;&#9;C462.3,235.4,462.3,235.1,462.3,234.7z"/>
	<path class="st4_chef-8 targetColor" d="M419.4,265.2c0,0-8.1,5.3-5.9,17.7c0.8,4.3,2,8.5,3.6,12.5c1.6,4,2.7,9.2,6.8,11.5c3.8,2.1,9.6,2.5,13.4,0.2&#10;&#9;&#9;c3.5-2.1,4.7-7,6-10.6c1.5-4.4,2.6-9,3.1-13.6C450.3,253,419.4,265.2,419.4,265.2z" style="fill: rgb(104, 225, 253);"/>
	<ellipse class="st3_chef-8" cx="430.3" cy="267" rx="11.9" ry="4.3"/>
	<path class="st3_chef-8" d="M431.3,244.2c-1.7-4-4.8-7.4-5.7-11.6c-1.3-5.9,1.1-12,6.1-15.5c0.9-0.7,0-2.2-0.9-1.5&#10;&#9;&#9;c-7.6,5.5-9,14.9-4.6,22.9c1.4,2.5,3.2,4.9,4,7.6c1.1,3.6-0.1,6.1-1.8,8.9c0.1-2.6-0.8-5.2-2.6-7.2c-2-1.8-4.9-2.1-7.3-2.9&#10;&#9;&#9;c-4.7-1.6-8.9-4.3-9.7-9.6c-0.2-1.1-1.9-0.6-1.7,0.5c0.7,4.3,3.5,7.4,7.3,9.3c2.3,1,4.6,1.8,7,2.4c2.1,0.8,3.8,2.4,4.6,4.5&#10;&#9;&#9;c1.1,2.5,0.4,4.3-0.3,6.9c-0.8,3.2-2.1,6,0.1,9.1c0.6,0.9,2.2,0,1.5-0.9c-3.6-4.9,2.1-9.6,4-13.8&#10;&#9;&#9;C432.6,250.3,432.6,247,431.3,244.2z"/>
	<path class="st3_chef-8" d="M453.1,233.4c-7.5-1.3-12.6,4.5-12.1,11.7c0.2,1.8,0.5,3.6,1,5.4c0.3,1.3,1.3,3.4,1,4.7&#10;&#9;&#9;c-0.5,2.3-2.1,4.2-4.3,5.1c-3.2,1.5-5.3,3.4-6.3,6.9c-0.1,0.5,0.1,0.9,0.6,1.1c0.5,0.1,0.9-0.1,1.1-0.6l0,0&#10;&#9;&#9;c1.7-6.3,10.6-5.4,10.7-12.4c0-3.4-1.8-6.6-2-10c-0.4-6,3.5-11.2,9.9-10C453.8,235.3,454.2,233.6,453.1,233.4z"/>
	<path class="st2_chef-8" d="M459.8,225.4c-2.9-5.4-8.2-6.6-13.4-5.1c-0.7,0.3-1.4,0.6-2.1,1c-13,9.6-3.8,31.4-1.8,31.2&#10;&#9;&#9;c6.6-0.5,5.9-4.4,8.1-15.4c0.8-5.1,5.2-8.8,10.4-8.7C460.8,227.5,460.4,226.4,459.8,225.4z"/>
	<path class="st3_chef-8" d="M457,221.9c-4.4-0.7-8.8,1.4-11.1,5.3c-4.8,7.9-3.7,17.2-3,26c0.1,1.1,1.8,1.1,1.8,0&#10;&#9;&#9;c-0.5-6.3-1.4-12.7,0.4-18.9c0.9-3.1,1.9-6.5,4.3-8.6c2.7-2.4,6.5-2.9,9.8-1.4l-0.7-0.9C457.9,222.9,457.5,222.4,457,221.9z"/>
</g>
<g id="chef_chef-8">
	
		<linearGradient id="SVGID_00000067957452874871080450000016459667985499992727_-chef-8" gradientUnits="userSpaceOnUse" x1="202.3858" y1="-927.6927" x2="237.5158" y2="-980.7227" gradientTransform="matrix(1 0 0 1 0 1286.3701)">
		<stop offset="2.000000e-02" style="stop-color:#FF836A;stop-opacity:0"/>
		<stop offset="1" style="stop-color:#FF836A"/>
	</linearGradient>
	<path style="fill:url(#SVGID_00000067957452874871080450000016459667985499992727_);" d="M340.2,357.6L180.6,267l-83.8,44.1&#10;&#9;&#9;l163.9,93.7C274.8,395.1,326.7,368.1,340.2,357.6z"/>
	<path class="st6_chef-8" d="M268.2,283c0,0-0.6,3.8-6,7.2s-16.3,6-16.3,10.3s3.1,6.6,7.1,6.6s17.2-7.4,22.3-8.3c3.8-0.8,7.4-2.1,10.8-3.8&#10;&#9;&#9;c0,0,0.9-13.7-2-19.1S268.2,283,268.2,283z"/>
	<path class="st6_chef-8" d="M297.4,305.4c0,0-11.4,18.3-12.9,21.4c-1.3,2.8-3.8,8.3-2.3,10.9c3,5.1,14.8,1.3,17.7-2.3&#10;&#9;&#9;c4-4.9,5.7-14.9,7.1-16c1.4-1.3,2.7-2.6,4-4l2.1-14.8"/>
	<path class="st3_chef-8" d="M260.7,213.7l7.6,69.2c0,0,9.6,5.6,20.3-2v-43.5l6.6,69.2c0,0,6.1,9.1,17.7,3l4.5-86.9l-56.6-20.3"/>
	<path class="st3_chef-8" d="M173.1,179.1h2.8c2.9,0,5.3,2.4,5.3,5.3v89.7c0,2.9-2.4,5.3-5.3,5.3h-2.8c-2.9,0-5.3-2.4-5.3-5.3v-89.7&#10;&#9;&#9;C167.8,181.5,170.1,179.1,173.1,179.1z"/>
	<path class="st3_chef-8" d="M277.2,295.4L277.2,295.4c3.7,0,6.7,3,6.7,6.7v86.8c0,3.7-3,6.7-6.7,6.7l0,0c-3.7,0-6.7-3-6.7-6.7v-86.8&#10;&#9;&#9;C270.6,298.4,273.5,295.4,277.2,295.4z"/>
	<path class="st3_chef-8" d="M333.6,251.7L333.6,251.7c3.7,0,6.7,3,6.7,6.7v99.2c0,3.7-3,6.7-6.7,6.7l0,0l0,0c-3.7,0-6.7-3-6.7-6.7l0,0&#10;&#9;&#9;v-99.2C326.9,254.7,329.9,251.7,333.6,251.7z"/>
	<path class="st3_chef-8" d="M121.9,203.1h2.8c2.9,0,5.3,2.4,5.3,5.3v89.7c0,2.9-2.4,5.3-5.3,5.3h-2.8c-2.9,0-5.3-2.4-5.3-5.3v-89.7&#10;&#9;&#9;C116.7,205.5,119,203.1,121.9,203.1z"/>
	<polyline class="st4_chef-8 targetColor" points="112.7,199.9 112.7,213.4 272.6,303.6 347,261 347,248 &#9;" style="fill: rgb(104, 225, 253);"/>
	<polygon class="st7_chef-8" points="112.7,199.9 187.8,154.3 347,248 272.6,291.5 &#9;"/>
	<polygon class="st8_chef-8" points="112.7,199.9 187.8,154.3 347,248 272.6,291.5 &#9;"/>
	<path class="st4_chef-8 targetColor" d="M138,179.4l1.5,19.2c0.2,3,1.8,5.7,4.4,7.2c6.8,4.2,14.7,6.2,22.7,6c10-0.2,16-3.3,19.2-5.8&#10;&#9;&#9;c1.9-1.5,3.2-3.7,3.5-6.2l2.8-20.4" style="fill: rgb(104, 225, 253);"/>
	<path class="st4_chef-8 targetColor" d="M142.9,185.3c-2.2,0.4-6.7,0.8-8.1-1.6c-0.5-1.2-0.5-2.6,0-3.8c0.6-1.8,2.1-1.8,3.8-1.5c2,0.3,2.9-2.8,0.9-3.1&#10;&#9;&#9;c-2.3-0.3-4.7-0.5-6.4,1.4c-1.4,1.9-2,4.2-1.6,6.5c0.9,5.6,8.1,5.9,12.4,5.1C145.8,188,144.9,185,142.9,185.3z" style="fill: rgb(104, 225, 253);"/>
	<path class="st4_chef-8 targetColor" d="M198.1,175.8c-1-5.5-6.9-6.2-11.5-5.4c-2,0.3-1.2,3.4,0.9,3.1c2.5-0.4,6.2-0.6,7.4,2.3&#10;&#9;&#9;c0.4,1.1,0.6,2.3-0.4,2.9c-1.3,0.6-2.7,0.8-4.1,0.6c-2-0.3-2.9,2.8-0.9,3.1c2.4,0.4,5,0,7.1-1.2C198.5,180,198.5,177.8,198.1,175.8&#10;&#9;&#9;z" style="fill: rgb(104, 225, 253);"/>
	<ellipse class="st2_chef-8" cx="165" cy="179.4" rx="27" ry="15.2"/>
	<ellipse class="st7_chef-8" cx="165" cy="179.4" rx="21.7" ry="10.4"/>
	<path class="st9_chef-8" d="M234.7,237.1l12.6-7.4c8.6-5,11.5-16,6.5-24.6c-1.6-2.7-3.8-5-6.5-6.5l-11.7-6.9c-5.4-3.2-12.2-3.4-17.7-0.4&#10;&#9;&#9;l-13.7,7.3c-8.8,4.7-12.1,15.5-7.5,24.3c1.7,3.2,4.3,5.8,7.5,7.5l12.8,6.9C222.5,240.4,229.2,240.3,234.7,237.1z"/>
	<path class="st10_chef-8" d="M240.7,164.6c-0.6,0.5-1.3,1-1.8,1.5c0.5-0.7,0.9-1.3,1.4-2c0.6-0.9-0.8-1.7-1.4-0.8l-0.4,0.5h-0.1&#10;&#9;&#9;c-0.1-0.5-0.5-0.8-1-0.7c0,0,0,0,0,0l0,0c0.1-0.3,0.3-0.5,0.5-0.8c0.2-0.4,0.1-0.9-0.2-1.1c-0.1-0.1-0.3-0.1-0.5-0.1&#10;&#9;&#9;c0.4-0.6,0.8-1.1,1.1-1.7c0.2-0.4,0.1-0.9-0.3-1.1c-0.3-0.2-0.7-0.1-1,0.1c-0.7,0.6-1.5,1.4-2.2,2.1l0.1-0.1&#10;&#9;&#9;c0.2-0.4,0.1-0.9-0.3-1.1c0,0,0,0,0,0c-0.1-0.1-0.2-0.1-0.4-0.1h-0.2c-0.1,0-0.2,0.1-0.2,0.1h-0.1c0,0-0.1,0.1-0.1,0.1l0,0&#10;&#9;&#9;c-0.2-0.4-0.7-0.6-1.1-0.4c0,0,0,0,0,0c-0.1,0.1-0.2,0.2-0.3,0.3l-5.2,8.2c-1.7,2.6-3.3,6.5-5.6,8.7c-1.6,1.5-8,2.6-7.1,6.1&#10;&#9;&#9;c0.1,0.3,0.3,0.5,0.6,0.6l0.5,0.1c-0.8,0.9-1.2,2.1-0.9,3.3c0.1,0.4,0.5,0.7,1,0.6l0,0c-0.2,0.9-0.3,1.8-0.2,2.7&#10;&#9;&#9;c0,0.7,0.4,1.3,1.1,1.5c0.3,0.1,0.6,0,0.9-0.2c0.1,2.2,1,4,3.7,3.9c0.4,0,0.8-0.4,0.8-0.8c0,0,0,0,0,0c0,0,0-0.1,0-0.1&#10;&#9;&#9;c0.1-0.1,0.2-0.3,0.3-0.5c0.1-1.2-0.2-2.4,0-3.6c0.4-2.5,3.2-2.5,5.2-1.6c0.4,0.2,0.9,0.1,1.2-0.3c0.1-0.1,0.1-0.2,0.1-0.4&#10;&#9;&#9;l-0.3-2.2c0.1-0.1,0.2-0.2,0.2-0.4c2.5-7.7,7.3-14.5,13.7-19.5C242.6,165.1,241.5,164,240.7,164.6z"/>
	<path class="st9_chef-8" d="M262.2,145.6c0,0-18.6,20.8-20.4,22.5c0,0-11.8-6.3-13.5-5.3c0,0,29.6-43.7,37.9-46.4S269.5,143.5,262.2,145.6&#10;&#9;&#9;z"/>
	<path class="st9_chef-8" d="M264.4,152.5c0,0-1.8-17.9-1.8-19s2.4-17.1,5.6-17.1s12.9-5.8,27.2,2.3s16.8,14.4,17.6,19.2s3.5,34.6,3.5,42.8&#10;&#9;&#9;s-23.4,9.9-23.4,9.9"/>
	<path class="st4_chef-8 targetColor" d="M271.3,116.4c0,0-2.5,10-2.5,17c0,4.4,0.4,8.9,1.3,13.2l13.6,4.8c0,0-1.4-31.4,14.4-35l3.8,3.2&#10;&#9;&#9;c0,0-9.8,0.5-12.4,11.7c-1.6,7-1.9,14.2-1,21.3l15.9,7.7l12,10.8v53.3l-9.4,1.7l-36.5-21.3c0,0,0.7-25.7,0-28.1s-6.4-24-6.1-24.3&#10;&#9;&#9;c0.7-1.9,1.3-3.9,1.8-5.9c0,0-1.8-24.2,2-30.2L271.3,116.4z" style="fill: rgb(104, 225, 253);"/>
	<path class="st10_chef-8" d="M277.2,191.6c-1.2,0.8-2.4,1.5-3.6,2.3c0.3-0.3,0.6-0.6,0.9-0.9c0.1-0.1,0.1-0.2,0.2-0.4c0.5-0.6,1-1.3,1.5-2&#10;&#9;&#9;c0.1-0.1,0.1-0.3,0.1-0.5l0.6-0.5c0.3-0.3,0.3-0.7,0.1-1c-0.1-0.1-0.2-0.2-0.4-0.2c-0.1-0.4-0.5-0.6-0.9-0.4&#10;&#9;&#9;c-0.1,0-0.1,0.1-0.2,0.1c-0.6,0.4-1.3,0.9-1.9,1.4c-0.4,0.1-0.8,0.2-1.1,0.4c0.8-0.8,1.6-1.6,2.3-2.5c0.3-0.3,0.3-0.8,0-1.1&#10;&#9;&#9;c0,0,0,0,0,0c0,0-0.1-0.1-0.1-0.1l0,0c0.8-0.7-0.4-1.8-1.1-1.1l-0.9,0.8c0,0-0.1-0.1-0.1-0.1l0.6-0.6c0.6-0.8-0.4-1.9-1.1-1.1&#10;&#9;&#9;l-0.4,0.4c0-0.4-0.4-0.8-0.8-0.7c0,0,0,0,0,0c-0.2,0-0.4,0.1-0.5,0.2c-3.1,3.2-6.2,6.4-9.3,9.5c-1.5,1.7-3.2,3.3-5.1,4.7&#10;&#9;&#9;c-2.1,1.4-4,1.5-6.3,1.9c-5.9,0.9-7,6.1-5.2,11.3c0.1,0.4,0.6,0.7,1,0.6l1-0.2c0.1,0,0.2-0.1,0.3-0.1c0.5,1.7,1.6,2.7,3.9,1.4&#10;&#9;&#9;c0,0,0.1-0.1,0.1-0.1c0.9,1.3,2.3,1.3,3.7,0.6c0.1,0,0.2-0.1,0.2-0.2c0.3,0.4,0.8,0.6,1.3,0.5c0.9-0.1,1.4-1,1.5-1.8&#10;&#9;&#9;c0-0.9-0.1-1.8-0.4-2.6c1.4-0.6,2.8-1.4,4.1-2.3c1.8-1.4,2.5-3.3,4-4.9c3.5-3.8,9-6.3,13.3-9.1C278.9,192.4,278.1,191,277.2,191.6z&#10;&#9;&#9;"/>
	<path class="st9_chef-8" d="M291.3,134.7c0,0-4.3,21.4-6.4,26.6s-18.6,23.6-18.6,23.6s8.5,12.4,9.8,11.4c9.1-9,17.3-18.9,24.5-29.6&#10;&#9;&#9;c11.1-16.5,14.1-26.6,11.4-31.9S294.7,125.9,291.3,134.7z"/>
	<path class="st10_chef-8" d="M277,120.8c0,0,1.9,5.7,2.4,6.3c0,0,6.6,0.4,9.2-9.9l-0.6-8.1"/>
	<path class="st3_chef-8" d="M291.9,95.9c0,0,2.3,3.1,1.3,6.2s-2.1,3.6-2.1,3.6s1.3,6.2-4.2,7.5s-8.3-9.7-6-11.4S291.9,95.9,291.9,95.9z"/>
	<path class="st10_chef-8" d="M267.9,104c-1.3-0.5,1.8,18.7,5.2,19.8s11.7-5.1,12.7-6.5c0.7-1.3,1.1-2.7,1.1-4.2c0,0,3.4-4.7,0.6-5.4&#10;&#9;&#9;c-1.4-0.3-2.9,0.6-3.2,2c0,0,0,0,0,0c0,0.1,0,0.2,0,0.3l-1.1,1.5L282,104C282,104,272.5,105.8,267.9,104z"/>
	<path class="st6_chef-8" d="M267,104v1.1c0,0.7,0.5,1.3,1.3,1.4c3.8,0.4,16,0.8,25.3-7.8v-3.8l-17.7,4.7"/>
	<path class="st4_chef-8 targetColor" d="M262.2,94.2c0,0-2.8,8.3,5.7,9.9c4.7,1.1,9.6-0.9,12.2-5c0,0,3.2,2.9,10,0.1s4.2-10.6,1.8-12&#10;&#9;&#9;c0,0,1-6.7-7.1-7.1s-11.6,3.3-11.6,3.3S256.6,84.3,262.2,94.2z" style="fill: rgb(104, 225, 253);"/>
	<path class="st7_chef-8" d="M157.3,136.5c-2-1.1-4.9-1.7-6.2-3.8c-1.8-3.1,2.3-5.1,4.5-6c1.7-0.7,1-3.5-0.8-2.8c-2.5,1-5.1,2.2-6.4,4.7&#10;&#9;&#9;c-1.2,2.2-0.8,5,1,6.8c2,2.3,5.1,2.7,7.5,4.4c1.2,0.9,2.4,2.3,1.6,3.9s-2.5,2-4,2.4c-4.9,1.2-11.2,3.2-11.2,9.4&#10;&#9;&#9;c0.1,2.5,1.5,4.7,3.7,5.8c2.7,1.5,5.9,1.4,8.9,1.1c1.9-0.2,1.9-3.1,0-2.9c-2.7,0.2-5.9,0.6-8.1-1.2s-1.7-4.4,0-6.2&#10;&#9;&#9;c3.4-3.6,9.4-2,12.7-5.8C163.4,142.5,160.7,138.3,157.3,136.5z"/>
	<path class="st7_chef-8" d="M177.6,140.8c-1.4-0.7-3.3-1.1-4.1-2.5c-1.3-2.1,1.5-3.4,3-4c1.2-0.5,0.7-2.4-0.5-1.9&#10;&#9;&#9;c-1.8,0.5-3.3,1.6-4.3,3.1c-0.8,1.5-0.5,3.3,0.7,4.5c1.4,1.5,3.4,1.8,5.1,3c0.8,0.6,1.6,1.6,1.1,2.5c-0.6,0.9-1.6,1.5-2.7,1.5&#10;&#9;&#9;c-3.3,0.8-7.5,2.1-7.5,6.3c0.1,1.6,1,3.1,2.4,3.9c1.9,0.9,4,1.1,6,0.8c1.3-0.1,1.3-2.1,0-2c-1.8,0.1-3.9,0.4-5.4-0.8&#10;&#9;&#9;c-1.1-1-1.3-2.7-0.3-3.8c0.1-0.1,0.2-0.2,0.3-0.3c2.3-2.4,6.3-1.4,8.5-3.9C181.7,144.8,179.9,142,177.6,140.8z"/>
	<path class="st7_chef-8" d="M228,197.8c-0.7,0-1.3,0.6-1.3,1.3c0,0.7,0.6,1.3,1.3,1.3c0.7,0,1.3-0.6,1.3-1.3&#10;&#9;&#9;C229.3,198.4,228.7,197.8,228,197.8C228,197.8,228,197.8,228,197.8z"/>
	<path class="st7_chef-8" d="M211.8,204.8c-0.7,0-1.3,0.6-1.3,1.3c0,0.7,0.6,1.3,1.3,1.3c0.7,0,1.3-0.6,1.3-1.3c0,0,0,0,0,0&#10;&#9;&#9;C213.1,205.4,212.5,204.8,211.8,204.8z"/>
	<path class="st7_chef-8" d="M237.8,221.7c-0.7,0-1.3,0.6-1.3,1.3c0,0.7,0.6,1.3,1.3,1.3c0.7,0,1.3-0.6,1.3-1.3S238.5,221.7,237.8,221.7&#10;&#9;&#9;C237.8,221.7,237.8,221.7,237.8,221.7z"/>
	<path class="st7_chef-8" d="M228.3,209.7c-0.7-0.1-1.3,0.5-1.4,1.2s0.5,1.3,1.2,1.4c0.1,0,0.2,0,0.2,0c0.7-0.1,1.2-0.7,1.2-1.4&#10;&#9;&#9;C229.4,210.3,228.9,209.8,228.3,209.7z"/>
	<path class="st7_chef-8" d="M214.6,222.4c-0.7,0-1.3,0.6-1.3,1.3c0,0.7,0.6,1.3,1.3,1.3c0.7,0,1.3-0.6,1.3-1.3c0,0,0,0,0,0&#10;&#9;&#9;C215.9,222.9,215.3,222.4,214.6,222.4z"/>
	<path class="st7_chef-8" d="M205.9,216.4c-0.7,0-1.3,0.6-1.3,1.3c0,0.7,0.6,1.3,1.3,1.3c0.7,0,1.3-0.6,1.3-1.3S206.6,216.4,205.9,216.4&#10;&#9;&#9;C205.9,216.4,205.9,216.4,205.9,216.4z"/>
	<path class="st7_chef-8" d="M228.7,230.1c-0.7,0-1.3,0.6-1.3,1.3c0,0.7,0.6,1.3,1.3,1.3c0.7,0,1.3-0.6,1.3-1.3S229.4,230.1,228.7,230.1&#10;&#9;&#9;C228.7,230.1,228.7,230.1,228.7,230.1z"/>
	<path class="st7_chef-8" d="M243.8,216.1c-0.7-0.1-1.3,0.5-1.4,1.2s0.5,1.3,1.2,1.4c0.1,0,0.2,0,0.2,0c0.7-0.1,1.2-0.7,1.2-1.4&#10;&#9;&#9;C244.9,216.6,244.4,216.1,243.8,216.1z"/>
	<path class="st7_chef-8" d="M228,218.2c-0.7,0-1.3,0.6-1.3,1.3c0,0.7,0.6,1.3,1.3,1.3c0.7,0,1.3-0.6,1.3-1.3&#10;&#9;&#9;C229.3,218.7,228.7,218.2,228,218.2C228,218.2,228,218.2,228,218.2z"/>
	<path class="st7_chef-8" d="M239.9,202.4c-0.7,0-1.3,0.6-1.3,1.3c0,0.7,0.6,1.3,1.3,1.3c0.7,0,1.3-0.6,1.3-1.3&#10;&#9;&#9;C241.2,202.9,240.6,202.4,239.9,202.4C239.9,202.4,239.9,202.4,239.9,202.4z"/>
	<circle class="st2_chef-8" cx="300.4" cy="235.3" r="19.1"/>
	<circle class="st11_chef-8" cx="300.4" cy="235.3" r="19.1"/>
	<path class="st2_chef-8" d="M281.6,234.2c6.2,0.2,12,2.8,13.5,9.2c0.8,3.4,0.8,7.4,1.5,10.5c1.2,0.2,2.5,0.4,3.7,0.4h1&#10;&#9;&#9;c-1.1-1.3-1.9-2.8-2.5-4.4c-1.7-4.5-1.8-9.6-4.4-13.8c-3.2-5.2-8.1-5.9-12.9-4.5c-0.2,0.8-0.3,1.7-0.3,2.5L281.6,234.2z"/>
	<path class="st2_chef-8" d="M291,247.1c-0.4-5.8-3.8-8.2-9.5-8.4c1.1,5.8,4.7,10.7,9.9,13.4C291.2,250.5,291.2,248.8,291,247.1z"/>
	<path class="st2_chef-8" d="M306.9,226.7c3.6,2.1,7,4.1,9.7,7.5c1.1,1.3,2,2.8,2.6,4.4c1.9-10.3-5-20.2-15.3-22.1&#10;&#9;&#9;c-1.9-0.4-3.9-0.4-5.9-0.1C294.1,219.3,304.2,225.2,306.9,226.7z"/>
	<path class="st2_chef-8" d="M314.9,239.8c-1.1-2.1-2.7-4-4.6-5.5c2.4,4.6,3.4,9.7,3.1,14.9c0.8-0.7,1.6-1.6,2.2-2.4&#10;&#9;&#9;C316.2,244.4,316,241.9,314.9,239.8z"/>
	<path class="st2_chef-8" d="M308.4,252c2.2-8.4-1.7-18-8.1-23.6c-3.9-3.3-8.7-5.4-13.7-6.3c-1.3,1.3-2.4,2.9-3.2,4.5&#10;&#9;&#9;c3.8-0.6,7.7,0.3,10.8,2.6c3.6,2.7,5.5,6.7,6.7,10.9c1.1,3.8,1.6,11.9,6.3,13c0.4-0.2,0.8-0.3,1.2-0.6&#10;&#9;&#9;C308.3,252.3,308.3,252.2,308.4,252z"/>
	<circle class="st12_chef-8" cx="290.6" cy="254.4" r="12.2"/>
	<path class="st11_chef-8" d="M284.3,244c-5.8,3.4-7.6,10.9-4.2,16.6c3.2,5.3,9.8,7.4,15.5,4.8C287.8,260.5,282.1,252.2,284.3,244z"/>
	<path class="st7_chef-8" d="M284.8,268.5c0,0,1.4,4.9-1.3,6.3s-32.5-17.6-30.5-20.1S280.2,264.6,284.8,268.5z"/>
	<path class="st7_chef-8" d="M267,268.2c0,0,1.4,4.9-1.3,6.3s-32.5-17.6-30.6-20.1S262.4,264.3,267,268.2z"/>
	<path class="st7_chef-8" d="M281,257.9c0,0,1.4,4.9-1.3,6.3s-32.4-17.6-30.5-20.2S276.4,254,281,257.9z"/>
</g>
</svg>